<?xml version="1.0" encoding="UTF-8" standalone="no"?>
<!DOCTYPE svg PUBLIC "-//W3C//DTD SVG 1.1//EN" "http://www.w3.org/Graphics/SVG/1.1/DTD/svg11.dtd">
<!-- Generated by Microsoft Visio, SVG Export Cloud.svg Page-1 -->
<svg xmlns="http://www.w3.org/2000/svg" xmlns:xlink="http://www.w3.org/1999/xlink" xmlns:ev="http://www.w3.org/2001/xml-events"
		width="3.23328in" height="2.93531in" viewBox="0 0 232.797 211.342" xml:space="preserve" color-interpolation-filters="sRGB"
		class="st8">
	<style type="text/css">
	<![CDATA[
		.st1 {fill:#5b9bd5;stroke:#ffffff;stroke-linecap:round;stroke-linejoin:round;stroke-width:0.5}
		.st2 {fill:#a5a5a5;stroke:#ffffff;stroke-linecap:round;stroke-linejoin:round;stroke-width:0.5}
		.st3 {fill:#ffffff}
		.st4 {stroke:#ffffff;stroke-linecap:round;stroke-linejoin:round;stroke-width:0.5}
		.st5 {fill:#1e4a73;font-family:Calibri;font-size:0.833336em}
		.st6 {marker-end:url(#mrkr4-49);marker-start:url(#mrkr4-47);stroke:#5592c9;stroke-linecap:round;stroke-linejoin:round;stroke-width:0.5}
		.st7 {fill:#5592c9;fill-opacity:1;stroke:#5592c9;stroke-opacity:1;stroke-width:0.16556291390728}
		.st8 {fill:none;fill-rule:evenodd;font-size:12px;overflow:visible;stroke-linecap:square;stroke-miterlimit:3}
	]]>
	</style>

	<defs id="Markers">
		<g id="lend4">
			<path d="M 2 1 L 0 0 L 2 -1 L 2 1 " style="stroke:none"/>
		</g>
		<marker id="mrkr4-47" class="st7" refX="11.36" orient="auto" markerUnits="strokeWidth" overflow="visible">
			<use xlink:href="#lend4" transform="scale(6.04) "/>
		</marker>
		<marker id="mrkr4-49" class="st7" refX="-12.08" orient="auto" markerUnits="strokeWidth" overflow="visible">
			<use xlink:href="#lend4" transform="scale(-6.04,-6.04) "/>
		</marker>
	</defs>
	<g>
		<title>Page-1</title>
		<g id="group4-1" transform="translate(3.59712E-14,-20.0036)">
			<title>Smart phone</title>
			<desc>Smartphone</desc>
			<g id="shape5-2" transform="translate(16.7093,0)">
				<title>Sheet.5</title>
				<path d="M0 206.93 C0 208.48 1.26 209.92 2.8 210.13 C2.8 210.13 11.94 211.34 18.72 211.34 C25.5 211.34 34.65 210.13
							 34.65 210.13 C36.19 209.92 37.45 208.48 37.45 206.93 L37.45 144.89 C37.45 143.33 36.19 141.89 34.65
							 141.68 C34.65 141.68 25.68 140.48 18.72 140.48 C11.94 140.48 2.8 141.69 2.8 141.69 C1.26 141.89 0 143.33
							 0 144.89 L0 206.93 Z" class="st1"/>
			</g>
			<g id="shape6-4" transform="translate(19.5351,-8.70177)">
				<title>Sheet.6</title>
				<rect x="0" y="159.252" width="31.796" height="52.0903" class="st2"/>
			</g>
			<g id="shape7-6" transform="translate(29.5929,-3.53445)">
				<title>Sheet.7</title>
				<path d="M2.52 210.08 A1.26009 1.26009 -180 1 0 0 210.08 A1.26009 1.26009 -180 1 0 2.52 210.08 ZM7.1 210.08 A1.26009
							 1.26009 -180 1 0 4.58 210.08 A1.26009 1.26009 -180 1 0 7.1 210.08 ZM11.69 210.08 A1.26083 1.26083 -180
							 1 0 9.17 210.08 A1.26083 1.26083 -180 1 0 11.69 210.08 Z" class="st3"/>
				<path d="M1.16 149.8 L10.52 149.8" class="st4"/>
			</g>
			<g id="shape4-9">
				<text x="10.32" y="224.34" class="st5">Smartphone</text>			</g>
		</g>
		<g id="group12-11" transform="translate(13.0394,-140.476)">
			<title>PC</title>
			<desc>Desktop</desc>
			<g id="shape13-12" transform="translate(0,-4.72617)">
				<title>Sheet.13</title>
				<path d="M48.01 193.94 L48.01 199.92 L51.62 199.92 L55.04 204.21 L70.87 204.21 L70.87 149.93 L48.01 149.93 L48.01
							 157.71 L57.81 157.71 L57.81 193.94 L48.01 193.94 ZM57.81 157.71 L3.53 157.71 L3.53 193.94 L57.81 193.94
							 L57.81 157.71 ZM60.73 211.34 L51.62 199.92 L9.11 199.92 L0 211.34 L60.73 211.34 ZM35.14 193.94 L25.59
							 193.94 L25.59 199.92 L35.14 199.92 L35.14 193.94 Z" class="st1"/>
			</g>
			<g id="shape14-14" transform="translate(7.05282,-25.393)">
				<title>Sheet.14</title>
				<path d="M47.32 181.97 L0 181.97 L0 211.34 L47.32 211.34 L47.32 181.97 Z" class="st2"/>
			</g>
			<g id="shape15-16" transform="translate(8.26528,-7.08364)">
				<title>Sheet.15</title>
				<path d="M53.45 158.36 L58.34 158.36 L58.34 156.46 L53.45 156.46 L53.45 158.36 ZM53.45 161.76 L58.34 161.76 L58.34
							 159.86 L53.45 159.86 L53.45 161.76 ZM41.47 206.91 L38.77 206.91 L40.28 208.59 L43.19 208.59 L41.47 206.91
							 ZM38.42 203.93 L36.1 203.93 L37.72 205.74 L40.27 205.74 L38.42 203.93 ZM37.32 206.91 L34.62 206.91 L35.81
							 208.59 L38.72 208.59 L37.32 206.91 ZM34.84 203.93 L32.52 203.93 L33.79 205.74 L36.35 205.74 L34.84 203.93
							 ZM33.17 206.91 L30.47 206.91 L31.33 208.59 L34.24 208.59 L33.17 206.91 ZM31.27 203.93 L28.95 203.93
							 L29.88 205.78 L32.44 205.78 L31.27 203.93 ZM29.02 206.91 L26.32 206.91 L26.86 208.59 L29.77 208.59 L29.02
							 206.91 ZM27.75 204.06 L25.4 204.06 L25.95 205.78 L28.51 205.78 L27.75 204.06 ZM24.87 206.91 L22.17 206.91
							 L22.38 208.59 L25.29 208.59 L24.87 206.91 ZM24.18 204.2 L21.82 204.2 L22.04 205.88 L24.61 205.88 L24.18
							 204.2 ZM20.55 204.2 L18.19 204.2 L18.08 205.88 L20.65 205.88 L20.55 204.2 ZM20.71 206.91 L18.01 206.91
							 L17.9 208.59 L20.81 208.59 L20.71 206.91 ZM16.93 204.2 L14.57 204.2 L14.13 205.88 L16.7 205.88 L16.93
							 204.2 ZM16.56 206.91 L13.86 206.91 L13.43 208.59 L16.34 208.59 L16.56 206.91 ZM31.37 209.66 L12.32 209.66
							 L11.83 211.34 L32.19 211.34 L31.37 209.66 ZM13.3 204.2 L10.94 204.2 L10.18 205.88 L12.75 205.88 L13.3
							 204.2 ZM12.41 206.91 L9.71 206.91 L8.95 208.59 L11.86 208.59 L12.41 206.91 ZM9.67 204.2 L7.31 204.2
							 L6.22 205.88 L8.79 205.88 L9.67 204.2 ZM8.26 206.91 L5.56 206.91 L4.48 208.59 L7.39 208.59 L8.26 206.91
							 ZM6.04 204.2 L3.68 204.2 L2.27 205.88 L4.84 205.88 L6.04 204.2 ZM4.11 206.91 L1.41 206.91 L0 208.59
							 L2.91 208.59 L4.11 206.91 Z" class="st3"/>
			</g>
			<g id="shape12-19">
				<text x="18.7" y="224.34" class="st5">Desktop</text>			</g>
		</g>
		<g id="group16-21" transform="translate(155.906,-140.476)">
			<title>Laptop</title>
			<desc>Laptop #2</desc>
			<g id="shape17-22" transform="translate(0,-6.56146)">
				<title>Sheet.17</title>
				<path d="M0 211.34 L70.87 211.34 L70.87 203.92 L64.8 193.66 L5.71 193.66 L0 203.92 L0 211.34 ZM64.99 191.97 L64.99
							 159.53 C64.99 156.25 62.34 153.6 59.06 153.6 L11.64 153.6 C8.37 153.6 5.71 156.25 5.71 159.53 L5.71
							 191.97 L64.99 191.97 Z" class="st1"/>
			</g>
			<g id="shape18-24" transform="translate(6.97248,-14.8259)">
				<title>Sheet.18</title>
				<path d="M2.86 206.22 L0 211.34 L56.8 211.34 L53.93 206.22 L2.86 206.22 Z" class="st3"/>
			</g>
			<g id="shape19-27" transform="translate(11.4259,-32.1061)">
				<title>Sheet.19</title>
				<rect x="0" y="184.691" width="48.0152" height="26.6509" class="st2"/>
			</g>
			<g id="shape16-29">
				<text x="15.22" y="224.34" class="st5">Laptop #2</text>			</g>
		</g>
		<g id="group20-31" transform="translate(155.906,-20.0036)">
			<title>Laptop.20</title>
			<desc>Laptop #1</desc>
			<g id="shape21-32" transform="translate(0,-6.56146)">
				<title>Sheet.21</title>
				<path d="M0 211.34 L70.87 211.34 L70.87 203.92 L64.8 193.66 L5.71 193.66 L0 203.92 L0 211.34 ZM64.99 191.97 L64.99
							 159.53 C64.99 156.25 62.34 153.6 59.06 153.6 L11.64 153.6 C8.37 153.6 5.71 156.25 5.71 159.53 L5.71
							 191.97 L64.99 191.97 Z" class="st1"/>
			</g>
			<g id="shape22-34" transform="translate(6.97248,-14.8259)">
				<title>Sheet.22</title>
				<path d="M2.86 206.22 L0 211.34 L56.8 211.34 L53.93 206.22 L2.86 206.22 Z" class="st3"/>
			</g>
			<g id="shape23-37" transform="translate(11.4259,-32.1061)">
				<title>Sheet.23</title>
				<rect x="0" y="184.691" width="48.0152" height="26.6509" class="st2"/>
			</g>
			<g id="shape20-39">
				<text x="15.22" y="224.34" class="st5">Laptop #1</text>			</g>
		</g>
		<g id="shape47-41" transform="translate(35.2034,-145.202)">
			<title>Dynamic connector.47</title>
			<path d="M-6.9 217.02 L-6.91 217.38 L-7.27 259.98" class="st6"/>
		</g>
		<g id="shape49-50" transform="translate(205.71,-84.3083)">
			<title>Dynamic connector.49</title>
			<path d="M7.09 205.66 L7.09 205.3 L7.09 154.65" class="st6"/>
		</g>
		<g id="shape50-57" transform="translate(155.906,-148.529)">
			<title>Dynamic connector.50</title>
			<path d="M-4.49 214.82 L-4.78 215.04 L-37.25 240.13 A2.3622 2.3622 -180 1 0 -40.99 243.01 L-96.97 286.27" class="st6"/>
		</g>
		<g id="shape55-64" transform="translate(161.916,-80.2471)">
			<title>Dynamic connector.55</title>
			<path d="M-4.34 207.68 L-4.62 207.45 L-80.88 143.14" class="st6"/>
		</g>
		<g id="shape58-71" transform="translate(54.1569,-34.1769)">
			<title>Dynamic connector.58</title>
			<path d="M5.68 204.26 L6.04 204.26 L99.76 204.26" class="st6"/>
		</g>
		<g id="shape59-78" transform="translate(161.617,-168.823)">
			<title>Dynamic connector</title>
			<path d="M-5.68 204.26 L-6.04 204.26 L-71.67 204.26" class="st6"/>
		</g>
	</g>
</svg>
